<svg width="14" height="14" viewBox="0 0 14 14" fill="none" xmlns="http://www.w3.org/2000/svg">
<path fill-rule="evenodd" clip-rule="evenodd" d="M0.292969 13.707C0.488281 13.9023 0.744141 14 1 14C1.25586 14 1.51172 13.9023 1.70703 13.707L7 8.41406L12.293 13.707C12.4883 13.9023 12.7441 14 13 14C13.2559 14 13.5117 13.9023 13.707 13.707C14.0977 13.3164 14.0977 12.6836 13.707 12.293L8.41406 7L13.707 1.70703C14.0977 1.31641 14.0977 0.683594 13.707 0.292969C13.3164 -0.0976562 12.6836 -0.0976562 12.293 0.292969L7 5.58594L1.70703 0.292969C1.31641 -0.0976562 0.683594 -0.0976562 0.292969 0.292969C-0.0976562 0.683594 -0.0976562 1.31641 0.292969 1.70703L5.58594 7L0.292969 12.293C-0.0976562 12.6836 -0.0976562 13.3164 0.292969 13.707Z" fill="#333B41"/>
</svg>
