<svg width="87" height="98" viewBox="0 0 87 98" fill="none" xmlns="http://www.w3.org/2000/svg">
<path d="M39.4988 6.26397C39.1494 5.93634 38.7999 5.69607 38.4723 5.52134C38.1446 5.36844 37.7733 5.28107 37.3583 5.28107C36.8778 5.28107 36.5283 5.39028 36.288 5.58686C36.0478 5.78344 35.9167 6.11108 35.9167 6.54792C35.9167 6.85371 36.0478 7.13766 36.3099 7.33424C36.572 7.55266 36.8778 7.74924 37.2709 7.94582C37.6641 8.1424 38.0791 8.33898 38.5159 8.5574C38.9528 8.77582 39.3678 9.01609 39.761 9.32188C40.1541 9.62767 40.4599 9.97715 40.722 10.414C40.9841 10.8508 41.1152 11.375 41.1152 11.9866C41.1152 12.9258 40.8531 13.734 40.3507 14.4111C39.8483 15.0882 39.062 15.5251 38.0573 15.7653V17.8185H36.157V15.8527C35.5891 15.7872 34.9775 15.6343 34.3441 15.3722C33.7107 15.1101 33.1646 14.7824 32.7059 14.3674L33.9728 12.4235C34.4751 12.7948 34.9557 13.0787 35.3925 13.2753C35.8512 13.4719 36.3099 13.5593 36.7686 13.5593C37.3146 13.5593 37.7296 13.4501 37.9699 13.2316C38.232 13.0132 38.3631 12.6637 38.3631 12.2051C38.3631 11.8556 38.232 11.5716 37.9699 11.3314C37.7078 11.0911 37.402 10.8727 37.0088 10.6543C36.6157 10.4358 36.2007 10.2174 35.7638 9.99899C35.327 9.78057 34.912 9.51846 34.5188 9.21267C34.1257 8.90688 33.8199 8.5574 33.5578 8.1424C33.2957 7.7274 33.1646 7.24687 33.1646 6.65713C33.1646 5.69607 33.4267 4.88791 33.9509 4.25449C34.4751 3.62106 35.2178 3.20606 36.1352 3.03132V1H38.0354V2.98764C38.6688 3.07501 39.2149 3.27159 39.6954 3.55554C40.176 3.83949 40.591 4.18896 40.9841 4.60396L39.4988 6.26397Z" fill="#333B41"/>
<path fill-rule="evenodd" clip-rule="evenodd" d="M86.525 77.0006L82.9313 74.7891L74.9145 89.164L78.7847 91.0991L86.525 77.0006Z" fill="#333B41"/>
<path fill-rule="evenodd" clip-rule="evenodd" d="M80.0833 74.3357L73.4902 86.254C73.4249 86.2249 73.3547 86.1938 73.2797 86.161C72.7148 85.9138 71.873 85.5632 70.7544 85.1438L70.7434 85.1396C70.0876 84.9054 69.2683 84.9122 68.4149 85.0302C67.5419 85.1509 66.5403 85.4025 65.4675 85.7395C63.3205 86.414 60.8087 87.4567 58.3283 88.5842C55.844 89.7134 53.3714 90.9368 51.2999 91.9791C50.7079 92.2769 50.1507 92.5589 49.6361 92.8193C48.3527 93.4689 47.3342 93.9843 46.7003 94.2779C44.322 95.1994 42.5772 95.3165 41.458 95.2233C40.8949 95.1763 40.484 95.0757 40.2244 94.9927C40.0945 94.9512 40.002 94.914 39.947 94.8899C39.9194 94.8779 39.9013 94.8691 39.8924 94.8647C39.8906 94.8638 39.8881 94.8626 39.8881 94.8626C36.9761 93.2449 34.1309 91.7652 31.2893 90.2874C26.777 87.9407 22.2738 85.5988 17.5273 82.7169L17.5188 82.7118L17.5101 82.7069C16.5996 82.1866 13.7449 80.0837 10.6183 77.6519C7.51633 75.2392 4.2281 72.5667 2.4537 70.9303C1.59855 70.0721 1.48525 69.5798 1.50165 69.3949C1.51061 69.294 1.58652 69.0993 2.07335 68.9324C2.54314 68.7713 3.21114 68.7173 3.91084 68.7955C4.6105 68.8737 5.25313 69.0741 5.68288 69.3427L5.73967 69.3782L5.80184 69.403C8.49098 70.4787 13.6861 73.4825 16.9645 75.9413L17.1371 76.0707L17.3522 76.0887C20.1462 76.3215 22.5365 76.9572 25.0702 78.0086C23.9315 79 23.305 80.0413 23.2153 81.1142C23.099 82.5036 23.9028 83.6484 24.9745 84.4712C26.0531 85.2995 27.5124 85.8977 29.0236 86.2209C30.5266 86.5423 32.1425 86.6049 33.571 86.3101C36.0004 86.0097 38.9851 86.0478 42.0029 86.0862C43.0244 86.0992 44.0497 86.1122 45.0585 86.1122C47.0343 86.1122 48.9408 86.0607 50.5726 85.8467C52.1795 85.636 53.6394 85.2547 54.6311 84.5109L54.0375 83.1748C48.4686 84.2614 45.1644 83.9893 42.3137 83.65C42.0705 83.621 41.8298 83.5914 41.5905 83.562C38.9912 83.2423 36.5616 82.9436 33.0177 83.7297C32.7793 83.7759 32.3344 83.784 31.726 83.7336C31.1318 83.6845 30.4424 83.5852 29.756 83.4512C29.0692 83.3172 28.3991 83.1512 27.8419 82.9722C27.2826 82.7926 26.9093 82.6222 26.7309 82.4964C26.2965 82.1092 26.1674 81.7924 26.1421 81.5647C26.1156 81.3262 26.1883 81.0521 26.4008 80.7332C26.8411 80.0728 27.7254 79.4588 28.51 79.0635C31.2888 77.894 34.04 77.8967 37.1299 77.8998C37.8346 77.9005 38.5569 77.9012 39.3011 77.888C43.2799 77.8176 47.6548 77.3202 52.6564 74.0339C58.1813 70.4429 62.8701 68.062 67.282 67.8316C71.5049 67.611 75.6183 69.3607 80.0833 74.3357ZM73.4732 87.8991L74.1164 88.2208L81.9065 74.1387L81.5612 73.7426C76.7616 68.2373 72.1325 66.0761 67.2038 66.3336C62.3554 66.5869 57.3692 69.1816 51.8373 72.7773L51.8341 72.7794C47.1609 75.8504 43.1049 76.3204 39.2746 76.3882C38.5963 76.4003 37.9174 76.3987 37.2384 76.3971C34.1449 76.3899 31.0471 76.3826 27.9777 77.6602L26.8474 77.1465C23.8102 75.7659 21.0164 74.9152 17.6919 74.6126C14.3524 72.1377 9.22335 69.1691 6.41834 68.0342C5.7508 67.6338 4.89945 67.3966 4.0774 67.3048C3.23077 67.2102 2.3265 67.2599 1.58687 67.5135C0.864273 67.7612 0.0935825 68.2921 0.0075153 69.2624C-0.0710446 70.148 0.471222 71.0692 1.40344 72.0014L1.41405 72.012L1.42506 72.0222C3.24706 73.704 6.58607 76.416 9.69743 78.8359C12.7818 81.2349 15.7243 83.4111 16.757 84.0041C21.5266 86.8995 26.1223 89.2907 30.6757 91.6599C33.5114 93.1353 36.3307 94.6022 39.1655 96.1771L39.4932 95.5871C39.1655 96.1771 39.1664 96.1776 39.1664 96.1776L39.1675 96.1781L39.1697 96.1794L39.1748 96.1821L39.1878 96.1891C39.1978 96.1944 39.2103 96.2008 39.2253 96.2082C39.2554 96.2232 39.2955 96.2422 39.3457 96.2642C39.4462 96.3081 39.587 96.3638 39.768 96.4216C40.1304 96.5374 40.6525 96.6613 41.3334 96.7181C42.6988 96.8318 44.6788 96.6735 47.2655 95.6676L47.287 95.6592L47.3079 95.6495C47.9666 95.3455 49.0335 94.8056 50.3468 94.1409C50.8554 93.8835 51.4009 93.6074 51.9741 93.319C54.0405 92.2794 56.492 91.0666 58.949 89.9497C61.41 88.8311 63.8569 87.8178 65.917 87.1706C66.9478 86.8467 67.8618 86.621 68.6204 86.5161C69.3947 86.409 69.9217 86.4407 70.234 86.5506C71.3238 86.9594 72.1386 87.2991 72.6784 87.5352C72.9489 87.6535 73.1503 87.7459 73.2827 87.808C73.3489 87.839 73.3979 87.8625 73.4296 87.8778L73.4642 87.8947L73.4718 87.8985L73.4732 87.8991Z" fill="#333B41"/>
<path fill-rule="evenodd" clip-rule="evenodd" d="M34.2779 73.406C34.8308 72.3003 35.3837 71.471 36.213 71.1945C37.0423 70.9181 37.3188 71.471 37.8717 72.0238C38.4246 72.8532 38.701 73.1296 39.5303 73.6825C39.8068 73.9589 40.3596 73.9589 40.6361 73.9589L40.0832 73.6825C39.2539 73.1296 38.701 72.5767 38.9774 71.4709C38.9774 71.1945 38.701 70.6416 39.2539 70.6416C39.8068 70.9181 40.6361 71.4709 41.4654 71.4709C41.4654 71.4709 42.2947 71.7474 42.0183 71.4709C42.0183 71.1945 41.4654 70.9181 41.189 70.6416C39.5303 69.2594 39.5303 68.983 39.5303 67.0479C39.8068 64.2835 38.701 62.072 36.7659 60.1369C32.3429 55.7138 34.2779 49.6321 37.5952 43.8269C40.6361 38.5745 43.4005 37.7452 40.3596 31.387C39.2539 28.6226 37.3188 25.8582 37.0423 24.1996C37.0423 23.9231 37.0423 23.6467 37.0423 24.1996C36.7659 25.8582 37.8717 28.3462 38.9774 30.8342C41.4654 36.363 40.9125 36.9159 37.3188 41.8918C33.4486 46.8677 30.6842 52.1201 32.3429 57.6489C33.4486 61.5191 38.9774 65.3893 36.213 67.8772C34.8308 68.983 32.8957 71.7474 32.6193 73.406C32.3429 74.2354 32.3429 74.2354 32.0664 74.7882C31.79 75.0647 32.0664 75.0647 32.3429 75.0647C33.7251 74.7882 33.7251 74.2354 34.2779 73.406Z" fill="#333B41"/>
<path fill-rule="evenodd" clip-rule="evenodd" d="M53.7425 45.8718C52.2003 46.0843 50.7151 46.5763 49.1813 47.0845C48.5548 47.2921 47.9201 47.5023 47.2702 47.6973C42.0178 49.6324 38.977 52.1203 37.8712 55.1612C37.5948 56.5434 37.5948 57.9256 38.1476 59.0314C38.4241 60.1371 39.5299 60.9665 40.6356 61.5193H40.9121C42.15 60.394 42.9756 59.406 43.7619 58.4063C43.9101 58.2178 44.0569 58.0289 44.2049 57.8386C45.1998 56.5588 46.2446 55.2148 48.0995 53.5025C45.6278 54.4912 43.8437 56.1675 42.63 57.4188C42.4581 57.596 42.2977 57.7647 42.1484 57.9217C41.5831 58.5161 41.177 58.943 40.9121 59.0314C39.5299 58.7549 39.2534 57.6492 39.8063 55.9905C40.5808 52.8923 44.4901 50.7586 51.3089 48.6887C51.7911 48.5423 52.2878 48.3962 52.799 48.2502C52.8221 48.7583 52.8047 49.2857 52.7493 49.8256C52.3038 54.1699 49.4019 59.3252 45.3873 61.7643C43.9288 62.6504 42.3234 63.178 40.6356 63.178C40.6648 63.178 40.74 63.1995 40.8565 63.2328C41.5256 63.4241 43.5549 64.0043 46.0236 63.1318C47.2017 62.7154 48.4799 61.9682 49.7582 60.69C53.051 57.1438 54.023 52.6693 55.0133 47.2664C55.0769 46.9196 55.1405 46.569 55.2048 46.2146C55.2321 46.0645 55.2594 45.9137 55.287 45.7622C54.7635 45.7622 54.2499 45.8019 53.7425 45.8718Z" fill="#333B41"/>
<path fill-rule="evenodd" clip-rule="evenodd" d="M32.7825 40.6635C32.9067 40.7939 33.0359 40.9264 33.1708 41.0613L33.1718 41.0623L33.4483 40.7858C33.6107 40.7452 33.7673 40.6986 33.9169 40.6452C34.7858 40.335 35.424 39.794 35.6598 38.8507C36.1919 37.7866 36.2119 36.7224 35.7198 35.6583C35.7155 35.6489 35.7111 35.6395 35.7067 35.6301C35.6915 35.5979 35.6759 35.5657 35.6598 35.5335C35.6148 35.3835 35.565 35.2352 35.5101 35.0886C34.5541 32.5316 32.0876 30.4826 27.643 29.1753C27.1314 29.0048 26.6431 28.8342 26.1687 28.6685C24.8478 28.2071 23.6335 27.783 22.3185 27.4999C21.8088 27.3901 21.284 27.3016 20.732 27.2402C20.8427 27.7663 20.948 28.2841 21.051 28.7933C21.0654 28.8647 21.0798 28.9359 21.0942 29.0069C21.2212 29.6353 21.3455 30.2505 21.4736 30.8518C21.88 32.761 22.3235 34.531 23.0075 36.1449C23.6444 37.6475 24.4898 39.0148 25.7079 40.233C26.3883 40.9657 27.0786 41.5002 27.7526 41.8835C29.6927 42.9868 31.4972 42.8365 32.5396 42.5514C33.0478 42.4125 33.3748 42.2415 33.4483 42.168C33.0012 42.1884 32.5616 42.1654 32.1309 42.1032C32.1155 42.101 32.1001 42.0987 32.0847 42.0964C30.8153 41.9047 29.6239 41.3733 28.5471 40.6094C26.7893 39.3623 25.337 37.4956 24.35 35.4763C23.6362 34.0158 23.1658 32.4755 22.9992 31.032C22.9825 30.887 22.9688 30.743 22.9583 30.6001C22.9293 30.2073 22.924 29.8233 22.9435 29.4518C23.4562 29.6013 23.9524 29.7508 24.4319 29.9007C29.8227 31.586 33.1113 33.3197 34.1165 35.6453C34.1614 35.7491 34.2017 35.854 34.2374 35.9602C34.2515 36.002 34.2649 36.0441 34.2776 36.0863C34.2932 36.1253 34.3079 36.164 34.3217 36.2025C34.3255 36.2131 34.3292 36.2236 34.3329 36.2342C34.79 37.5469 34.2379 38.5842 33.1718 38.8507C33.1668 38.8491 33.1617 38.8473 33.1566 38.8454C32.8808 38.744 32.4862 38.3494 31.9534 37.8167C30.8682 36.7314 29.2095 35.0727 26.8137 34.1513C28.7921 35.7999 29.7872 37.0552 30.796 38.3278C31.2189 38.8612 31.6442 39.3977 32.1453 39.9675C32.1667 39.9918 32.1882 40.0162 32.2099 40.0406C32.3897 40.2435 32.5795 40.4507 32.7825 40.6635Z" fill="#333B41"/>
<path fill-rule="evenodd" clip-rule="evenodd" d="M49.7564 31.344C47.5943 33.1637 45.5112 33.0144 44.4343 32.7504C43.9558 32.6331 43.676 32.4932 43.676 32.4932C44.0194 32.4932 44.359 32.4629 44.6935 32.405C44.7286 32.3989 44.7637 32.3925 44.7987 32.3858C46.2518 32.108 47.6068 31.3102 48.7736 30.2106C49.1067 29.8967 49.4245 29.5581 49.7248 29.2001C51.2189 27.4189 52.2812 25.1545 52.653 23.0324C52.7485 22.4872 52.7985 21.9514 52.7985 21.4356C52.717 21.4578 52.636 21.4801 52.5555 21.5023C52.1157 21.6239 51.6923 21.7455 51.2847 21.8675C46.6193 23.2644 44.0438 24.7118 43.0684 26.6997C42.995 26.8494 42.9306 27.0022 42.8751 27.1582C42.8653 27.1856 42.8559 27.2132 42.8466 27.2408C42.7028 27.8162 42.7086 28.3167 42.8642 28.7035C42.9106 28.8189 42.9703 28.9241 43.0434 29.0182C43.1077 29.101 43.1823 29.1751 43.2672 29.24C43.3393 29.2949 43.4188 29.3432 43.5057 29.3843C43.5596 29.4098 43.6164 29.4325 43.676 29.4524C44.0212 29.4524 44.5102 28.9732 45.1828 28.3142C46.1259 27.3902 47.4299 26.1125 49.2048 25.3057C47.6251 26.7274 46.7676 27.7881 45.91 28.8487C45.3824 29.5013 44.8548 30.1539 44.1589 30.8907C44.1327 30.9184 44.1063 30.9462 44.0796 30.9742C43.9511 31.1089 43.8169 31.2465 43.676 31.3874C43.6464 31.38 43.6172 31.3723 43.5884 31.3641C42.8608 31.1575 42.3824 30.705 42.0679 30.1774C41.9296 29.9454 41.823 29.6989 41.7409 29.4524C41.2298 28.6858 41.1912 27.6831 41.4065 26.8808C41.4164 26.8438 41.4269 26.8073 41.4379 26.7712C41.4464 26.7432 41.4553 26.7154 41.4644 26.688C41.5357 26.4742 41.6171 26.2666 41.7089 26.0648C42.6859 23.9171 44.8377 22.4226 48.3754 21.1591C49.9875 20.5546 51.4526 20.097 52.8779 19.7863C53.1961 19.7169 53.5123 19.6548 53.8277 19.6001C53.9848 19.5728 54.1417 19.5474 54.2985 19.5238C54.3514 19.5158 54.4043 19.508 54.4571 19.5005C54.4033 19.7875 54.3507 20.0722 54.2985 20.3545C54.2955 20.3708 54.2925 20.3871 54.2895 20.4033C54.2485 20.625 54.2078 20.8452 54.1671 21.0638C54.1439 21.1882 54.1207 21.3121 54.0974 21.4356C53.4739 24.7415 52.7938 27.6885 50.8884 30.1466C50.7072 30.3804 50.5149 30.6097 50.3105 30.8346C50.1256 31.0194 49.9408 31.1889 49.7564 31.344Z" fill="#333B41"/>
</svg>
