<svg width="284" height="199" viewBox="0 0 284 199" fill="none" xmlns="http://www.w3.org/2000/svg">
<path d="M248.818 149.012C259.667 128.031 268.492 102.302 268.492 74.8823C268.492 61.1086 264.189 45.4516 256.983 33.0005C250.681 22.113 238.996 8.04664 219.099 2.8605C193.918 -3.70199 168.405 2.41795 147.905 7.33602C140.497 9.11321 133.499 10.7918 127.505 11.6219C114.063 13.4819 99.861 13.2094 87.6527 12.7377H87.6447C85.7346 12.6638 83.8685 12.5854 82.0672 12.5095C74.354 12.1839 56.5905 11.8716 56.5905 11.8716C55.6211 7.75076 53.4112 4.37468 50.6527 2.81625C49.484 2.16698 48.2082 1.83787 46.9188 1.85308C45.6294 1.86828 44.3593 2.22742 43.2017 2.90412C39.4074 4.9519 37.588 9.50202 38.4481 14.6388C32.3687 17.7595 26.4293 23.9711 22.8271 28.8557C19.7343 33.0492 17.1116 39.6705 14.5743 46.0737C11.9909 52.5951 9.31994 59.3384 6.64684 62.0614C5.9925 62.7224 5.41381 63.4829 4.92562 64.3235C4.91713 64.3235 4.90864 64.3178 4.89962 64.3159C4.34066 64.1818 3.76434 64.1883 3.20763 64.3352C2.65092 64.482 2.12611 64.7658 1.66685 65.1684C1.20759 65.5711 0.824019 66.0837 0.540739 66.6733C0.257459 67.2629 0.0807214 67.9166 0.0218613 68.5924C-0.0369987 69.2681 0.0233178 69.9511 0.198943 70.5975C0.374568 71.2438 0.661624 71.8393 1.0417 72.3458C1.42178 72.8522 1.88649 73.2584 2.40603 73.5383C2.92557 73.8183 3.48848 73.9657 4.05864 73.9712C4.54128 75.7629 5.19313 77.4835 6.00165 79.0998C11.3807 90.1328 19.8898 96.9918 27.3971 103.042C31.5356 106.378 35.4439 109.529 38.472 113.048C40.7437 115.78 42.7198 118.84 44.3541 122.157C44.3721 122.199 44.396 122.235 44.4156 122.276C47.4893 128.404 49.9274 135.881 50.3826 143.022C50.9583 152.044 52.3203 176.404 52.7485 184.098C51.2693 184.659 49.8817 185.518 48.646 186.637C47.7266 187.465 47.0521 188.62 46.7199 189.935C46.3877 191.251 46.4151 192.658 46.798 193.953C47.1615 195.275 47.8684 196.425 48.8166 197.237C49.7647 198.049 50.905 198.481 52.0725 198.47H77.215C78.025 198.471 78.8253 198.26 79.5597 197.853C80.2941 197.446 80.9446 196.852 81.4655 196.113C87.026 188.234 100.896 167.929 109.674 149.507C143.654 149.467 166.86 147.998 180.397 145.018C182.413 160.207 185.076 177.514 186.05 183.756C185.209 184.225 184.415 184.801 183.68 185.475C182.674 186.4 181.936 187.676 181.57 189.124C181.203 190.573 181.226 192.123 181.636 193.555C182.045 194.988 182.821 196.232 183.853 197.113C184.886 197.994 186.124 198.468 187.394 198.468H210.961C212.355 198.467 213.706 197.896 214.79 196.852C222.562 189.34 236.783 172.18 248.642 149.355C248.707 149.245 248.766 149.131 248.818 149.012V149.012ZM82.7384 76.8194C75.1366 95.8013 61.7558 111.156 47.5021 117.419C45.8655 114.368 43.9567 111.537 41.8089 108.976C38.4747 105.101 34.3944 101.812 30.0744 98.3302C22.6462 92.3418 14.9627 86.1498 10.1323 76.2415C7.19176 70.2108 8.29007 67.8753 9.75131 66.3871C13.2033 62.8706 15.9677 55.8921 18.8949 48.5027C21.29 42.4555 23.7668 36.2028 26.416 32.6124C29.6218 28.2646 35.323 22.2521 40.84 19.6157C41.382 19.3558 41.8693 18.9569 42.2673 18.4474C45.2832 23.6999 52.4662 22.9254 54.2692 18.1426C54.3949 17.799 54.4882 17.4398 54.5472 17.0717C62.1394 18.2482 74.2368 17.8714 81.899 18.1964C83.1979 18.2514 84.5371 18.307 85.8932 18.3614C91.4809 37.0582 90.3788 57.7408 82.7384 76.8194ZM229.255 128.936C224.804 127.95 202.711 123.969 184.181 136.909C183.3 129.773 182.699 123.838 182.699 120.937C182.699 120.183 182.447 119.459 182 118.926C181.552 118.392 180.945 118.092 180.311 118.092C179.678 118.092 179.071 118.392 178.623 118.926C178.175 119.459 177.924 120.183 177.924 120.937C177.924 124.306 178.645 131.248 179.668 139.393C168.107 141.967 149.042 143.399 121.715 143.739C127.155 139.803 131.493 134.153 134.661 126.804C139.073 116.576 141.023 103.251 140.3 88.2677C139.486 71.3873 128.6 48.65 119.852 30.3825C117.826 26.1523 115.886 22.1004 114.27 18.5144C118.871 18.2899 123.497 17.9043 128.054 17.2733C134.245 16.4173 141.337 14.7153 148.845 12.911C168.907 8.09785 193.875 2.10753 218.076 8.4165C251.326 17.0856 263.716 53.7856 263.716 74.8823C263.716 99.1635 256.475 122.109 247.132 141.388C244.389 136.5 238.673 131.023 229.255 128.936V128.936Z" fill="black"/>
<path d="M32.0017 42.2392C22.3919 37.8144 16.8025 50.2411 22.9183 57.5388C26.2626 61.5273 29.4418 70.7695 36.7085 70.0029C48.2537 68.7877 47.1906 49.2253 32.0017 42.2392ZM27.6484 54.2627C27.0785 54.2627 26.5214 54.0586 26.0475 53.6763C25.5737 53.294 25.2044 52.7506 24.9863 52.1148C24.7682 51.479 24.7112 50.7794 24.8223 50.1045C24.9335 49.4296 25.2079 48.8096 25.6109 48.323C26.0139 47.8364 26.5273 47.505 27.0862 47.3708C27.6452 47.2365 28.2245 47.3055 28.751 47.5688C29.2775 47.8321 29.7275 48.2781 30.0442 48.8503C30.3608 49.4225 30.5298 50.0952 30.5298 50.7833C30.5296 51.706 30.226 52.5909 29.6857 53.2434C29.1453 53.8959 28.4125 54.2625 27.6484 54.2627V54.2627Z" fill="black"/>
<path d="M135.331 154.951C135.301 154.811 135.233 154.687 135.136 154.599C135.04 154.511 134.921 154.464 134.799 154.465C132.193 154.498 118.399 154.668 112.55 154.696C112.46 154.695 112.372 154.722 112.293 154.774C112.214 154.825 112.148 154.9 112.101 154.99C108.342 162.044 101.747 173.019 97.3921 180.164C97.3204 180.282 97.285 180.425 97.2918 180.57C97.2986 180.715 97.3472 180.852 97.4295 180.96L103.515 189.012L103.45 189.127C103.429 189.172 103.402 189.216 103.38 189.261C102.905 190.179 102.646 191.23 102.63 192.306C102.613 193.382 102.84 194.443 103.286 195.381C103.732 196.319 104.382 197.099 105.169 197.642C105.955 198.185 106.85 198.471 107.762 198.47H133.641C134.325 198.469 135.003 198.307 135.633 197.993C136.264 197.679 136.835 197.219 137.313 196.641C137.791 196.062 138.166 195.376 138.416 194.624C138.666 193.872 138.787 193.068 138.77 192.26C138.683 188.097 138.456 181.562 137.892 174.47C137.426 167.901 136.57 161.379 135.331 154.951Z" fill="black"/>
<path d="M262.923 131.544C262.888 131.422 262.824 131.316 262.738 131.239C262.652 131.163 262.549 131.12 262.443 131.116C262.336 131.113 262.231 131.148 262.142 131.218C262.053 131.288 261.983 131.39 261.942 131.509C261.238 133.589 260.447 135.625 259.574 137.608C252.27 154.22 243.413 169.754 233.177 183.901C233.09 184.02 233.043 184.174 233.045 184.334C233.047 184.493 233.099 184.645 233.19 184.76L234.959 187.026C234.439 187.773 234.003 188.6 233.662 189.487C233.295 190.466 233.139 191.541 233.207 192.614C233.275 193.686 233.565 194.72 234.051 195.62C234.483 196.476 235.086 197.185 235.804 197.684C236.522 198.182 237.331 198.452 238.158 198.47H265.024C265.688 198.469 266.345 198.308 266.956 197.995C267.567 197.683 268.121 197.225 268.584 196.648C269.048 196.072 269.411 195.39 269.654 194.64C269.897 193.891 270.014 193.09 269.999 192.285C269.733 179.33 268.499 150.618 262.923 131.544Z" fill="black"/>
</svg>
