<svg width="40" height="40" viewBox="0 0 40 40" fill="none" xmlns="http://www.w3.org/2000/svg">
<path fill-rule="evenodd" clip-rule="evenodd" d="M31.954 20.477C31.954 26.8208 26.8208 31.954 20.477 31.954C14.1332 31.954 9 26.8208 9 20.477C9 14.1332 14.1332 9 20.477 9C26.8208 9 31.954 14.1332 31.954 20.477ZM20.477 10.7918C25.8523 10.7918 30.2107 15.1017 30.2107 20.477C30.2107 25.8523 25.8523 30.2107 20.477 30.2107C15.1017 30.2107 10.7918 25.8523 10.7918 20.477C10.7918 15.1017 15.1017 10.7918 20.477 10.7918Z" fill="#FE9013"/>
<path fill-rule="evenodd" clip-rule="evenodd" d="M20 0C31.0412 0 40 8.95884 40 20C40 31.0412 31.0412 40 20 40C8.95884 40 0 31.0412 0 20C0 8.95884 8.95884 0 20 0ZM20 1.79177C30.0726 1.79177 38.2567 9.92736 38.2567 20C38.2567 30.0726 30.0726 38.2567 20 38.2567C9.92736 38.2567 1.79177 30.0726 1.79177 20C1.79177 9.92736 9.92736 1.79177 20 1.79177Z" fill="#FE9013"/>
</svg>
