<svg width="26" height="26" viewBox="0 0 26 26" fill="none" xmlns="http://www.w3.org/2000/svg">
<circle cx="13" cy="13" r="13" fill="#C4C4C4" fill-opacity="0.5"/>
<path fill-rule="evenodd" clip-rule="evenodd" d="M21 8.65713C20.4114 8.93821 19.7787 9.12837 19.1147 9.21377C19.7923 8.77623 20.313 8.08372 20.5579 7.25827C19.9237 7.6633 19.2211 7.95752 18.4734 8.11604C17.8747 7.42906 17.0216 7 16.0774 7C14.2646 7 12.7949 8.58227 12.7949 10.5341C12.7949 10.8111 12.8238 11.0809 12.8798 11.3397C10.1517 11.1923 7.73296 9.7851 6.11392 7.6467C5.83136 8.16877 5.66944 8.77589 5.66944 9.42363C5.66944 10.6498 6.24896 11.7316 7.12976 12.3655C6.59168 12.347 6.08544 12.1882 5.64304 11.9235C5.64272 11.938 5.64272 11.9529 5.64272 11.9677C5.64272 13.6802 6.77424 15.1086 8.27584 15.4334C8.00048 15.5142 7.7104 15.5576 7.41104 15.5576C7.19952 15.5576 6.99392 15.5353 6.79344 15.4939C7.2112 16.898 8.42336 17.92 9.85984 17.9485C8.73648 18.8964 7.32096 19.4615 5.78304 19.4615C5.51808 19.4615 5.2568 19.4447 5 19.412C6.45264 20.4148 8.17824 21 10.0318 21C16.0698 21 19.3715 15.6144 19.3715 10.944C19.3715 10.7907 19.3683 10.6382 19.3621 10.4866C20.0035 9.98839 20.56 9.36589 21 8.65713" fill="white"/>
</svg>
